<svg id="LOGO_2" data-name="LOGO 2" xmlns="http://www.w3.org/2000/svg" viewBox="0 0 549.61 132.72"><defs><style>.cls-1{fill:#192f59;}.cls-2{fill:#050606;}.cls-3{fill:#f4da3c;stroke:#f4da3d;stroke-miterlimit:10;}.cls-4{fill:#fff;}</style></defs><title>logo</title><path class="cls-1" d="M41.11,137.13a62.89,62.89,0,0,1-24.62-23.35A64.38,64.38,0,0,1,7.53,80a64.38,64.38,0,0,1,9-33.76A62.81,62.81,0,0,1,41.11,22.91q15.66-8.41,35.21-8.42c11,0,20.64.07,30.32.07,7.92,0,17.64-.13,25.18,0l-.21,25.19c-7.66,0-41.17-.28-53.84-.28a42.28,42.28,0,0,0-21,5.16A36.67,36.67,0,0,0,42.38,59a42.33,42.33,0,0,0-5.16,21,42.33,42.33,0,0,0,5.16,21,36.67,36.67,0,0,0,14.39,14.39,42.28,42.28,0,0,0,21,5.16c12.75,0,67.71-.32,97.09-.32V145c-11.13,0-50.12.6-66,.6H76.14A72.8,72.8,0,0,1,41.11,137.13Z" transform="translate(-7.53 -14.49)"/><path class="cls-1" d="M234.77,23A48.38,48.38,0,0,1,255,43.23q7.25,13.41,7.24,32.41V145H233V98.81H175v46.33h-29V75.64q0-19,7.24-32.41A48.44,48.44,0,0,1,173.58,23q13-6.87,30.6-6.88T234.77,23ZM233,75.28V72.92q0-15.75-7.79-23.8T204,41.06q-13.59,0-21.27,8.06T175,72.92v2.36Z" transform="translate(-7.53 -14.49)"/><path class="cls-2" d="M299.69,145.56c-10.83,0-26.29-.6-37.91-.6V120.27c9.56,0,36.28,0,44.05.08,8.43.08,16.53.08,24,.08,9,0,12.13.31,16.83-.54,5.35-1,6-5.76,6-9.86a9.4,9.4,0,0,0-3.53-7.51,26.81,26.81,0,0,0-9.05-4.8q-5.52-1.8-14.93-4a206.55,206.55,0,0,1-23.72-6.88,38.45,38.45,0,0,1-15.83-11Q279,68.22,279,55.54a35.27,35.27,0,0,1,6-20q6-9,18-14.21t29.42-5.25c8.08,0,17.09.07,25.05.07h89v23.9c-11.13,0-102.52-.44-114.22-.44q-12.31,0-18.2,4t-5.88,10.5q0,6.51,6.79,9.68T335.63,70a206.54,206.54,0,0,1,23.71,6.87,39.48,39.48,0,0,1,15.84,10.86q6.6,7.42,6.61,20.1a34.64,34.64,0,0,1-6.07,19.82q-6.06,9-18.19,14.21c-8.09,3.5-17.53,3.67-29.11,3.67Z" transform="translate(-7.53 -14.49)"/><path class="cls-2" d="M527.51,145.56l-26.3-38h-27v38H444.91l.5-129.41h54.35q16.85,0,29.24,5.62A43.4,43.4,0,0,1,548.09,37.7q6.7,10.3,6.7,24.43T548,86.48a43,43,0,0,1-19.27,15.66l28.41,43.42Zm-9.28-99.81q-6.89-5.7-20.09-5.7h-23.9V84.22h23.9q13.2,0,20.09-5.8t6.88-16.29Q525.11,51.45,518.23,45.75Z" transform="translate(-7.53 -14.49)"/><polygon class="cls-3" points="403.52 33.43 387.38 105.92 403.52 131.02 403.52 33.43"/><polygon class="cls-3" points="404.52 33.43 420.66 105.92 404.52 131.02 404.52 33.43"/><path class="cls-4" d="M420.92,26A9.94,9.94,0,0,1,409,37.93,9.93,9.93,0,1,1,420.92,26Z" transform="translate(-7.53 -14.49)"/></svg>