<svg id="Layer_1" data-name="Layer 1" xmlns="http://www.w3.org/2000/svg" viewBox="0 0 1322.78 670.64"><defs><style>.cls-1{fill:#f5da3c;stroke:#f4d93c;stroke-miterlimit:10;stroke-width:5.32px;}.cls-2{fill:#020202;}</style></defs><title>tie</title><polygon class="cls-1" points="1228.73 142.14 1142.84 527.97 1228.73 661.58 1228.73 142.14"/><polygon class="cls-1" points="1234.05 142.14 1319.94 527.97 1234.05 661.58 1234.05 142.14"/><path class="cls-2" d="M1297.09,102a46.32,46.32,0,0,1-55.6,55.6A45.85,45.85,0,0,1,1207,123.18,46.26,46.26,0,1,1,1297.09,102Z" transform="translate(-20.06 -66.4)"/><polygon class="cls-1" points="88.73 142.14 2.84 527.97 88.73 661.58 88.73 142.14"/><polygon class="cls-1" points="94.05 142.14 179.94 527.97 94.05 661.58 94.05 142.14"/><path class="cls-2" d="M157.09,102a46.32,46.32,0,0,1-55.6,55.6A45.85,45.85,0,0,1,67,123.18,46.26,46.26,0,1,1,157.09,102Z" transform="translate(-20.06 -66.4)"/></svg>